<svg width="132" height="46" viewBox="0 0 132 46" fill="none" xmlns="http://www.w3.org/2000/svg">
<path fill-rule="evenodd" clip-rule="evenodd" d="M23.3975 3.56541V21.1082H27.8928V15.5609C27.8928 13.7181 29.2903 12.2155 31.0474 12.2155H36.7257C37.5711 12.2463 38.3726 12.5991 38.9655 13.2015C39.2268 13.4959 39.4397 13.8297 39.5964 14.1906C39.7713 14.6262 39.8591 15.0917 39.8551 15.5609V21.1082H44.3505V3.56541C44.3468 3.10089 44.2514 2.64166 44.0697 2.21403C43.9993 2.02849 43.9071 1.85192 43.7952 1.68796C43.5092 1.24959 43.121 0.887023 42.6639 0.631353C42.2068 0.375684 41.6943 0.234539 41.1706 0.220023H26.5836C26.0618 0.23799 25.5517 0.379963 25.0958 0.634163C24.6399 0.888363 24.2513 1.24746 23.9622 1.68166C23.8471 1.8475 23.7518 2.02616 23.6782 2.21403C23.4966 2.64166 23.4011 3.10089 23.3975 3.56541Z" fill="#C92E32"/>
<path fill-rule="evenodd" clip-rule="evenodd" d="M0.00100253 3.64731V17.6809C-0.0199082 18.5604 0.298492 19.4141 0.890296 20.0655C1.4814 20.6929 2.29309 21.0667 3.15452 21.1082H20.953V16.7422C20.953 16.5501 20.6377 16.6194 20.3002 16.6194C19.515 16.6194 15.1095 16.654 14.8005 16.6194C12.9904 16.3232 12.0096 14.9246 12.0096 13.085V8.09523C11.9909 7.56792 12.0992 7.04382 12.3252 6.56695C12.5513 6.09007 12.8886 5.67434 13.3089 5.35466C13.4674 5.23173 13.6387 5.12613 13.8197 5.03965C14.2164 4.82232 14.6603 4.70551 15.1127 4.69944H20.953V0.220023H3.18606C2.70803 0.233982 2.23915 0.354344 1.81362 0.572331C1.38808 0.790317 1.01661 1.10043 0.726313 1.48006C0.244144 2.09869 -0.0117808 2.8634 0.00100253 3.64731Z" fill="#C92E32"/>
<path fill-rule="evenodd" clip-rule="evenodd" d="M0.000982758 27.0475V44.3108C0.000982758 44.4051 0.0293804 44.4334 0.124039 44.4334H2.82182C3.01745 44.4334 2.94488 44.0498 2.94488 43.8643C2.94488 43.1192 2.91332 39.0604 2.96065 38.7492C3.04246 38.0126 3.38873 37.3304 3.93564 36.8282C4.38061 36.3986 4.93909 36.1039 5.54585 35.9786C6.15261 35.8534 6.78262 35.9027 7.3623 36.1209C7.76158 36.2773 8.12689 36.509 8.43825 36.8031C8.74606 37.0923 8.99466 37.4382 9.17028 37.8217C9.54892 38.6046 9.44164 39.9376 9.44164 41.0128V41.585C9.44164 42.2138 9.12611 42.0723 11.5241 42.0723V39.0196C11.545 38.2165 11.8788 37.4531 12.4549 36.8911C12.883 36.457 13.4248 36.1515 14.0187 36.0094C14.6126 35.8672 15.2346 35.8942 15.8138 36.0873C16.3931 36.2803 16.9062 36.6316 17.2947 37.1011C17.6833 37.5707 17.9316 38.1395 18.0114 38.7429V43.8235C18.0114 44.0121 17.9325 44.4334 18.1313 44.4334H20.8291C20.9238 44.4334 20.9522 44.4051 20.9522 44.3108V26.9375C20.9618 26.4996 20.8844 26.0642 20.7244 25.6563C20.5644 25.2484 20.325 24.8761 20.02 24.5608C19.715 24.2455 19.3504 23.9934 18.9472 23.8191C18.544 23.6448 18.1101 23.5517 17.6707 23.5452H3.31089C2.65667 23.5514 2.01876 23.7494 1.47673 24.1145C0.934694 24.4796 0.512526 24.9956 0.262873 25.5982C0.0785856 26.0588 -0.0104898 26.5518 0.000982758 27.0475Z" fill="#C92E32"/>
<path fill-rule="evenodd" clip-rule="evenodd" d="M23.3975 26.4356H26.8733C27.1135 26.4356 27.2114 26.4797 27.4863 26.4797C28.3616 26.4797 29.1421 26.3979 29.8625 26.681C30.4534 26.9111 30.9642 27.3076 31.3325 27.8219C31.7008 28.3362 31.9107 28.9462 31.9365 29.5772C31.9623 30.2083 31.8029 30.8332 31.4778 31.3756C31.1528 31.918 30.676 32.3545 30.1058 32.6317C29.6972 32.828 29.2512 32.9352 28.7977 32.9462H25.7705V35.0221H28.9778C30.9432 35.0221 32.9876 37.6892 31.4109 40.0544C31.3041 40.2167 31.1859 40.3712 31.057 40.5167C30.9265 40.6463 30.7848 40.7642 30.6335 40.869C30.1083 41.2615 29.4732 41.4814 28.8166 41.498H23.3975V44.3067C23.3975 44.4011 23.4259 44.4294 23.5207 44.4294H40.7893C41.6891 44.4723 42.5708 44.1682 43.2508 43.5802C43.8889 43.0149 44.2829 42.2261 44.3505 41.3785V26.6369C44.3398 26.1995 44.2318 25.7698 44.0345 25.3788C43.7573 24.835 43.3362 24.3769 42.8167 24.0537C42.2972 23.7306 41.6989 23.5548 41.0863 23.5452H23.3975V26.4388V26.4356Z" fill="#C92E32"/>
<path d="M59.4156 9.07384C58.653 9.07384 57.9699 8.92344 57.3664 8.62265C56.7714 8.3135 56.302 7.83308 55.9584 7.18136C55.6232 6.5213 55.4555 5.6607 55.4555 4.59958V4.34892C55.4555 3.58024 55.5561 2.92435 55.7573 2.38126C55.9584 1.82981 56.2392 1.37862 56.5996 1.0277C56.9683 0.676777 57.3916 0.417764 57.8693 0.250658C58.347 0.0835527 58.8625 0 59.4156 0C59.9101 0 60.3711 0.0626645 60.7985 0.187994C61.2344 0.304968 61.6199 0.484606 61.9551 0.726909C62.2904 0.969213 62.5586 1.28254 62.7597 1.66688C62.9693 2.05122 63.0908 2.50241 63.1243 3.02043H61.1631C61.0709 2.52747 60.8698 2.16402 60.5597 1.93007C60.2496 1.69612 59.8682 1.57915 59.4156 1.57915C59.0636 1.57915 58.7368 1.66688 58.435 1.84234C58.1333 2.00945 57.8861 2.29352 57.6933 2.69458C57.5089 3.09563 57.4167 3.64708 57.4167 4.34892V4.59958C57.4167 5.15103 57.4754 5.61475 57.5927 5.99074C57.7101 6.35837 57.8651 6.65498 58.0579 6.88057C58.2507 7.09781 58.4644 7.25656 58.699 7.35682C58.9337 7.44873 59.1726 7.49469 59.4156 7.49469C59.8934 7.49469 60.2873 7.37354 60.5974 7.13123C60.9075 6.88057 61.0961 6.5213 61.1631 6.0534H63.1243C63.0824 6.59649 62.9609 7.06439 62.7597 7.45709C62.5586 7.84143 62.2946 8.15475 61.9677 8.39706C61.6408 8.63101 61.2595 8.80229 60.8237 8.91091C60.3879 9.01953 59.9185 9.07384 59.4156 9.07384Z" fill="#24272A"/>
<path d="M67.7661 9.07384C67.1626 9.07384 66.6053 8.95268 66.094 8.71038C65.5911 8.45972 65.1888 8.08373 64.8871 7.58242C64.5854 7.07275 64.4345 6.43357 64.4345 5.66488V5.41422C64.4345 4.67896 64.577 4.06902 64.862 3.58442C65.1553 3.09981 65.545 2.73635 66.0311 2.49405C66.5173 2.25175 67.0536 2.1306 67.6403 2.1306C68.688 2.1306 69.4842 2.40632 70.029 2.95777C70.5737 3.50922 70.8461 4.30715 70.8461 5.35156V6.0534H66.1317C66.1485 6.4461 66.2323 6.76778 66.3832 7.01844C66.5424 7.26074 66.7435 7.44038 66.9866 7.55735C67.2297 7.66597 67.4895 7.72028 67.7661 7.72028C68.1935 7.72028 68.5162 7.65761 68.7341 7.53229C68.952 7.40696 69.107 7.22314 69.1992 6.98084H70.7204C70.5863 7.67433 70.2553 8.19653 69.7272 8.54745C69.1992 8.89837 68.5455 9.07384 67.7661 9.07384ZM67.7032 3.48415C67.4434 3.48415 67.1919 3.52593 66.9489 3.60948C66.7058 3.69303 66.5131 3.84343 66.3706 4.06067C66.2281 4.26955 66.1485 4.54945 66.1317 4.90037H69.2369C69.2286 4.52438 69.1531 4.23613 69.0107 4.0356C68.8766 3.82672 68.6964 3.68468 68.4701 3.60948C68.2438 3.52593 67.9882 3.48415 67.7032 3.48415Z" fill="#24272A"/>
<path d="M72.4312 11.43V2.28099H73.9649V3.25856C74.1325 2.95777 74.3966 2.69458 74.7569 2.46899C75.1173 2.24339 75.5741 2.1306 76.1273 2.1306C77.0157 2.1306 77.7071 2.40632 78.2016 2.95777C78.7045 3.50086 78.9559 4.31968 78.9559 5.41422V5.66488C78.9559 6.42521 78.8386 7.06021 78.6039 7.56988C78.3776 8.0712 78.0549 8.44719 77.6359 8.69785C77.2168 8.94851 76.714 9.07384 76.1273 9.07384C75.6747 9.07384 75.2724 8.97775 74.9204 8.78558C74.5767 8.58505 74.296 8.32604 74.0781 8.00854V11.43H72.4312ZM75.7375 7.67015C76.1734 7.67015 76.5379 7.50722 76.8313 7.18136C77.1246 6.84715 77.2713 6.34166 77.2713 5.66488V5.41422C77.2713 4.78758 77.1288 4.31968 76.8439 4.01053C76.5673 3.69303 76.1985 3.53428 75.7375 3.53428C75.4274 3.53428 75.1425 3.59695 74.8827 3.72228C74.6312 3.83925 74.4343 4.01889 74.2918 4.26119C74.1493 4.49514 74.0781 4.79593 74.0781 5.16356V5.91554C74.0781 6.30824 74.1451 6.63827 74.2792 6.90564C74.4217 7.16465 74.6187 7.35682 74.8701 7.48215C75.1215 7.60748 75.4107 7.67015 75.7375 7.67015Z" fill="#24272A"/>
<path d="M80.6561 8.92344V2.28099H85.4333V3.65961H82.3155V8.92344H80.6561Z" fill="#24272A"/>
<path d="M86.8254 8.92344V2.28099H88.4723V6.54218L91.4392 2.28099H92.9604V8.92344H91.3135V4.66225L88.3465 8.92344H86.8254Z" fill="#24272A"/>
<path d="M97.8804 9.07384C97.2769 9.07384 96.7196 8.95268 96.2083 8.71038C95.7055 8.45972 95.3032 8.08373 95.0014 7.58242C94.6997 7.07275 94.5489 6.43357 94.5489 5.66488V5.41422C94.5489 4.67896 94.6913 4.06902 94.9763 3.58442C95.2696 3.09981 95.6594 2.73635 96.1455 2.49405C96.6316 2.25175 97.168 2.1306 97.7547 2.1306C98.8023 2.1306 99.5985 2.40632 100.143 2.95777C100.688 3.50922 100.96 4.30715 100.96 5.35156V6.0534H96.246C96.2628 6.4461 96.3466 6.76778 96.4975 7.01844C96.6567 7.26074 96.8579 7.44038 97.1009 7.55735C97.344 7.66597 97.6038 7.72028 97.8804 7.72028C98.3078 7.72028 98.6305 7.65761 98.8484 7.53229C99.0663 7.40696 99.2214 7.22314 99.3136 6.98084H100.835C100.701 7.67433 100.37 8.19653 99.8416 8.54745C99.3136 8.89837 98.6598 9.07384 97.8804 9.07384ZM97.8175 3.48415C97.5577 3.48415 97.3063 3.52593 97.0632 3.60948C96.8202 3.69303 96.6274 3.84343 96.4849 4.06067C96.3424 4.26955 96.2628 4.54945 96.246 4.90037H99.3513C99.3429 4.52438 99.2675 4.23613 99.125 4.0356C98.9909 3.82672 98.8107 3.68468 98.5844 3.60948C98.3581 3.52593 98.1025 3.48415 97.8175 3.48415Z" fill="#24272A"/>
<path d="M102.545 8.92344V2.28099H105.864C106.443 2.28099 106.912 2.35619 107.272 2.50658C107.633 2.65698 107.893 2.86586 108.052 3.13323C108.22 3.4006 108.303 3.71392 108.303 4.0732C108.303 4.37399 108.211 4.66225 108.027 4.93797C107.842 5.20534 107.583 5.38498 107.247 5.47689C107.658 5.57715 107.977 5.76932 108.203 6.0534C108.437 6.32913 108.555 6.65498 108.555 7.03097C108.555 7.60748 108.354 8.06702 107.951 8.40959C107.549 8.75216 106.937 8.92344 106.116 8.92344H102.545ZM104.192 7.59495H105.802C106.179 7.59495 106.455 7.54064 106.631 7.43202C106.816 7.31505 106.908 7.13123 106.908 6.88057C106.908 6.62992 106.82 6.45028 106.644 6.34166C106.476 6.22468 106.196 6.1662 105.802 6.1662H104.192V7.59495ZM104.192 4.93797H105.638C106.024 4.93797 106.288 4.88366 106.43 4.77504C106.581 4.66642 106.656 4.49932 106.656 4.27373C106.656 4.05649 106.581 3.89356 106.43 3.78494C106.279 3.66797 106.015 3.60948 105.638 3.60948H104.192V4.93797Z" fill="#24272A"/>
<path d="M113.159 9.07384C112.555 9.07384 111.998 8.95268 111.486 8.71038C110.984 8.45972 110.581 8.07956 110.28 7.56988C109.978 7.06021 109.827 6.42521 109.827 5.66488V5.41422C109.827 4.69567 109.978 4.09409 110.28 3.60948C110.581 3.11652 110.984 2.74889 111.486 2.50658C111.998 2.25593 112.555 2.1306 113.159 2.1306C113.77 2.1306 114.328 2.25593 114.831 2.50658C115.333 2.74889 115.736 3.11652 116.037 3.60948C116.339 4.09409 116.49 4.69567 116.49 5.41422V5.66488C116.49 6.4085 116.339 7.03515 116.037 7.54482C115.736 8.05449 115.333 8.43883 114.831 8.69785C114.328 8.94851 113.77 9.07384 113.159 9.07384ZM113.159 7.67015C113.477 7.67015 113.758 7.59913 114.001 7.45709C114.252 7.30669 114.449 7.0811 114.592 6.78031C114.734 6.47952 114.805 6.10771 114.805 5.66488V5.41422C114.805 5.00481 114.734 4.66225 114.592 4.38652C114.449 4.1108 114.252 3.90192 114.001 3.75988C113.758 3.60948 113.477 3.53428 113.159 3.53428C112.84 3.53428 112.555 3.60948 112.304 3.75988C112.061 3.90192 111.868 4.1108 111.725 4.38652C111.583 4.66225 111.512 5.00481 111.512 5.41422V5.66488C111.512 6.11607 111.583 6.49205 111.725 6.79284C111.868 7.08528 112.061 7.30669 112.304 7.45709C112.555 7.59913 112.84 7.67015 113.159 7.67015Z" fill="#24272A"/>
<path d="M117.679 6.19126V4.63718H121.702V6.19126H117.679Z" fill="#24272A"/>
<path d="M55.8453 20.7601V11.987H63.2375V20.7601H61.3643V13.5411H57.7184V20.7601H55.8453Z" fill="#24272A"/>
<path d="M68.4045 20.9105C67.801 20.9105 67.2437 20.7893 66.7324 20.547C66.2295 20.2964 65.8272 19.9162 65.5255 19.4065C65.2238 18.8969 65.0729 18.2619 65.0729 17.5015V17.2509C65.0729 16.5323 65.2238 15.9307 65.5255 15.4461C65.8272 14.9532 66.2295 14.5855 66.7324 14.3432C67.2437 14.0926 67.801 13.9672 68.4045 13.9672C69.0163 13.9672 69.5736 14.0926 70.0765 14.3432C70.5794 14.5855 70.9817 14.9532 71.2834 15.4461C71.5851 15.9307 71.736 16.5323 71.736 17.2509V17.5015C71.736 18.2451 71.5851 18.8718 71.2834 19.3815C70.9817 19.8911 70.5794 20.2755 70.0765 20.5345C69.5736 20.7852 69.0163 20.9105 68.4045 20.9105ZM68.4045 19.5068C68.7229 19.5068 69.0037 19.4358 69.2468 19.2937C69.4982 19.1433 69.6952 18.9177 69.8376 18.617C69.9801 18.3162 70.0514 17.9444 70.0514 17.5015V17.2509C70.0514 16.8415 69.9801 16.4989 69.8376 16.2232C69.6952 15.9474 69.4982 15.7386 69.2468 15.5965C69.0037 15.4461 68.7229 15.3709 68.4045 15.3709C68.086 15.3709 67.801 15.4461 67.5496 15.5965C67.3065 15.7386 67.1138 15.9474 66.9713 16.2232C66.8288 16.4989 66.7576 16.8415 66.7576 17.2509V17.5015C66.7576 17.9527 66.8288 18.3287 66.9713 18.6295C67.1138 18.9219 67.3065 19.1433 67.5496 19.2937C67.801 19.4358 68.086 19.5068 68.4045 19.5068Z" fill="#24272A"/>
<path d="M76.2569 20.9105C75.6451 20.9105 75.0919 20.7852 74.5974 20.5345C74.103 20.2755 73.709 19.8953 73.4157 19.394C73.1307 18.8843 72.9883 18.2535 72.9883 17.5015V17.2509C72.9883 16.5323 73.1391 15.9307 73.4408 15.4461C73.7426 14.9615 74.1407 14.5939 74.6352 14.3432C75.1296 14.0926 75.6702 13.9672 76.2569 13.9672C76.8855 13.9672 77.4177 14.0717 77.8535 14.2806C78.2894 14.4894 78.6246 14.7777 78.8593 15.1453C79.1023 15.513 79.2406 15.9182 79.2741 16.361H77.5895C77.5225 16.0602 77.3842 15.8221 77.1747 15.6467C76.9735 15.4628 76.6676 15.3709 76.2569 15.3709C75.972 15.3709 75.7079 15.4378 75.4649 15.5715C75.2302 15.7051 75.0375 15.9098 74.8866 16.1856C74.7441 16.4613 74.6729 16.8164 74.6729 17.2509V17.5015C74.6729 17.9694 74.7399 18.3538 74.874 18.6546C75.0165 18.947 75.2051 19.1642 75.4398 19.3063C75.6828 19.44 75.9552 19.5068 76.2569 19.5068C76.5838 19.5068 76.8645 19.4232 77.0992 19.2561C77.3423 19.0807 77.5057 18.8342 77.5895 18.5167H79.2741C79.2239 18.9929 79.0646 19.4149 78.7964 19.7825C78.5282 20.1502 78.172 20.4301 77.7278 20.6222C77.292 20.8144 76.8017 20.9105 76.2569 20.9105Z" fill="#24272A"/>
<path d="M82.7748 20.9105C82.2971 20.9105 81.8906 20.8228 81.5553 20.6473C81.2201 20.4635 80.9645 20.2128 80.7885 19.8953C80.6124 19.5778 80.5244 19.2185 80.5244 18.8175C80.5244 18.1491 80.7214 17.6477 81.1153 17.3135C81.5176 16.9793 82.1169 16.8122 82.9131 16.8122H84.8994V16.4989C84.8994 16.0644 84.7989 15.7595 84.5977 15.584C84.4049 15.4085 84.0948 15.3208 83.6674 15.3208C83.2902 15.3208 83.0178 15.3876 82.8502 15.5213C82.6826 15.6467 82.5862 15.8054 82.5611 15.9976H80.9016C80.9267 15.6132 81.0483 15.2707 81.2662 14.9699C81.4925 14.6607 81.811 14.4184 82.2216 14.243C82.6407 14.0592 83.1436 13.9672 83.7302 13.9672C84.3002 13.9672 84.7947 14.0508 85.2137 14.2179C85.6412 14.385 85.9722 14.6566 86.2069 15.0325C86.4416 15.4002 86.5589 15.8973 86.5589 16.524V19.0681C86.5589 19.4191 86.5631 19.7282 86.5715 19.9956C86.5882 20.2546 86.6134 20.5094 86.6469 20.7601H85.1006C85.067 20.5763 85.0461 20.4384 85.0377 20.3465C85.0377 20.2462 85.0377 20.1 85.0377 19.9079C84.8617 20.1752 84.5851 20.4092 84.208 20.6097C83.8308 20.8102 83.3531 20.9105 82.7748 20.9105ZM83.2902 19.6321C83.5584 19.6321 83.8141 19.5862 84.0571 19.4943C84.3086 19.394 84.5097 19.2436 84.6606 19.0431C84.8198 18.8342 84.8994 18.571 84.8994 18.2535V17.9402H83.2274C82.9089 17.9402 82.6575 18.0154 82.4731 18.1658C82.2971 18.3078 82.2091 18.5042 82.2091 18.7548C82.2091 19.0222 82.3013 19.2352 82.4856 19.394C82.67 19.5527 82.9382 19.6321 83.2902 19.6321Z" fill="#24272A"/>
<path d="M87.8814 22.3267V19.3815H88.6357C88.753 19.206 88.8452 18.9428 88.9123 18.5919C88.9877 18.241 89.0422 17.8483 89.0757 17.4138C89.1176 16.971 89.1386 16.5365 89.1386 16.1104V14.1176H94.3559V19.3815H95.1605V22.3267H93.7147V20.7601H89.3271V22.3267H87.8814ZM90.2575 19.3815H92.6964V15.4963H90.6472V16.361C90.6472 16.9459 90.6179 17.5141 90.5592 18.0655C90.5089 18.6086 90.4083 19.0473 90.2575 19.3815Z" fill="#24272A"/>
<path d="M99.5609 20.9105C98.949 20.9105 98.3959 20.7852 97.9014 20.5345C97.4069 20.2755 97.013 19.8953 96.7197 19.394C96.4347 18.8843 96.2922 18.2535 96.2922 17.5015V17.2509C96.2922 16.5323 96.4431 15.9307 96.7448 15.4461C97.0465 14.9615 97.4446 14.5939 97.9391 14.3432C98.4336 14.0926 98.9742 13.9672 99.5609 13.9672C100.189 13.9672 100.722 14.0717 101.157 14.2806C101.593 14.4894 101.929 14.7777 102.163 15.1453C102.406 15.513 102.545 15.9182 102.578 16.361H100.893C100.826 16.0602 100.688 15.8221 100.479 15.6467C100.277 15.4628 99.9715 15.3709 99.5609 15.3709C99.2759 15.3709 99.0119 15.4378 98.7689 15.5715C98.5342 15.7051 98.3414 15.9098 98.1906 16.1856C98.0481 16.4613 97.9768 16.8164 97.9768 17.2509V17.5015C97.9768 17.9694 98.0439 18.3538 98.178 18.6546C98.3205 18.947 98.509 19.1642 98.7437 19.3063C98.9868 19.44 99.2591 19.5068 99.5609 19.5068C99.8877 19.5068 100.169 19.4232 100.403 19.2561C100.646 19.0807 100.81 18.8342 100.893 18.5167H102.578C102.528 18.9929 102.369 19.4149 102.1 19.7825C101.832 20.1502 101.476 20.4301 101.032 20.6222C100.596 20.8144 100.106 20.9105 99.5609 20.9105Z" fill="#24272A"/>
<path d="M104.092 20.7601V14.1176H105.739V16.7245H106.355L108.417 14.1176H110.24L107.726 17.2634L110.366 20.7601H108.379L106.355 18.0279H105.739V20.7601H104.092Z" fill="#24272A"/>
<path d="M111.701 20.7601V14.1176H113.348V18.3788L116.315 14.1176H117.836V20.7601H116.189V16.4989L113.222 20.7601H111.701Z" fill="#24272A"/>
<path d="M119.751 20.7601V14.1176H121.398V18.3788L124.365 14.1176H125.886V20.7601H124.239V16.4989L121.272 20.7601H119.751ZM122.831 13.4283C122.085 13.4283 121.541 13.2696 121.197 12.9521C120.862 12.6346 120.694 12.1667 120.694 11.5484H122.165C122.165 11.8742 122.219 12.104 122.328 12.2377C122.437 12.363 122.601 12.4257 122.819 12.4257C123.053 12.4257 123.229 12.363 123.347 12.2377C123.464 12.104 123.523 11.8742 123.523 11.5484H124.968C124.968 12.1667 124.797 12.6346 124.453 12.9521C124.109 13.2696 123.569 13.4283 122.831 13.4283Z" fill="#24272A"/>
<path d="M55.5938 32.5967V25.9543H57.5424L59.3905 29.5387L61.2385 25.9543H63.1117V32.5967H61.5403V28.2729L59.9185 31.2808H58.787L57.1653 28.2729V32.5967H55.5938Z" fill="#24272A"/>
<path d="M66.1381 35.2537C66.0124 35.2537 65.8867 35.2412 65.7609 35.2161V33.8124C65.8867 33.8375 66.0124 33.85 66.1381 33.85C66.3057 33.85 66.444 33.8083 66.553 33.7247C66.6703 33.6411 66.7751 33.5075 66.8673 33.3236C66.9678 33.1398 67.0768 32.8975 67.1941 32.5967L64.3781 25.9543H66.2387L68.049 30.5413L69.7085 25.9543H71.4183L68.8536 32.5967C68.6105 33.2234 68.3759 33.7289 68.1496 34.1132C67.9233 34.5059 67.6551 34.7942 67.345 34.978C67.0433 35.1618 66.641 35.2537 66.1381 35.2537Z" fill="#24272A"/>
<path d="M75.0709 32.7471C74.434 32.7471 73.8934 32.6594 73.4492 32.4839C73.0134 32.3085 72.6781 32.0495 72.4434 31.7069C72.2171 31.3643 72.0872 30.9549 72.0537 30.4787H73.7383C73.7551 30.6541 73.8054 30.8087 73.8892 30.9424C73.9814 31.0761 74.1197 31.1763 74.3041 31.2432C74.4968 31.31 74.7525 31.3434 75.0709 31.3434C75.5654 31.3434 75.9091 31.2724 76.1018 31.1304C76.303 30.98 76.4035 30.8004 76.4035 30.5915C76.4035 30.3408 76.3197 30.1528 76.1521 30.0275C75.9929 29.9022 75.6953 29.8395 75.2595 29.8395H74.2412V28.6113H75.1715C75.49 28.6113 75.7331 28.5444 75.9007 28.4107C76.0683 28.2771 76.1521 28.1016 76.1521 27.8844C76.1521 27.6922 76.0683 27.5334 75.9007 27.4081C75.7414 27.2744 75.4649 27.2076 75.0709 27.2076C74.6603 27.2076 74.3627 27.2786 74.1784 27.4206C73.994 27.5543 73.8892 27.7507 73.8641 28.0097H72.1794C72.213 27.5334 72.3387 27.1324 72.5566 26.8065C72.7829 26.4807 73.1056 26.2342 73.5246 26.0671C73.9521 25.8916 74.4675 25.8039 75.0709 25.8039C76.0432 25.8039 76.7472 25.9835 77.183 26.3428C77.6188 26.6937 77.8367 27.1616 77.8367 27.7465C77.8367 28.064 77.7529 28.3481 77.5853 28.5987C77.4261 28.8494 77.1704 29.0332 76.8184 29.1502C77.2962 29.2672 77.6272 29.4593 77.8116 29.7267C77.996 29.9857 78.0882 30.2949 78.0882 30.6541C78.0882 31.0552 77.9792 31.4145 77.7613 31.732C77.5434 32.0495 77.2123 32.3001 76.7681 32.4839C76.3239 32.6594 75.7582 32.7471 75.0709 32.7471Z" fill="#24272A"/>
<path d="M82.6636 32.7471C82.0602 32.7471 81.5028 32.626 80.9916 32.3837C80.4887 32.133 80.0864 31.757 79.7847 31.2557C79.483 30.746 79.3321 30.1069 79.3321 29.3382V29.0875C79.3321 28.3523 79.4746 27.7423 79.7595 27.2577C80.0529 26.7731 80.4426 26.4097 80.9287 26.1673C81.4148 25.925 81.9512 25.8039 82.5379 25.8039C83.5855 25.8039 84.3818 26.0796 84.9265 26.6311C85.4713 27.1825 85.7437 27.9804 85.7437 29.0249V29.7267H81.0293C81.046 30.1194 81.1299 30.4411 81.2807 30.6917C81.44 30.934 81.6411 31.1137 81.8842 31.2306C82.1272 31.3393 82.387 31.3936 82.6636 31.3936C83.091 31.3936 83.4137 31.3309 83.6316 31.2056C83.8495 31.0803 84.0046 30.8964 84.0968 30.6541H85.618C85.4839 31.3476 85.1528 31.8698 84.6248 32.2207C84.0968 32.5717 83.4431 32.7471 82.6636 32.7471ZM82.6008 27.1574C82.3409 27.1574 82.0895 27.1992 81.8464 27.2828C81.6034 27.3663 81.4106 27.5167 81.2681 27.734C81.1257 27.9428 81.046 28.2227 81.0293 28.5737H84.1345C84.1261 28.1977 84.0507 27.9094 83.9082 27.7089C83.7741 27.5 83.5939 27.358 83.3676 27.2828C83.1413 27.1992 82.8857 27.1574 82.6008 27.1574Z" fill="#24272A"/>
<path d="M87.3287 32.5967V25.9543H88.9756V30.2155L91.9426 25.9543H93.4638V32.5967H91.8169V28.3355L88.8499 32.5967H87.3287ZM90.4088 25.265C89.6629 25.265 89.1181 25.1062 88.7745 24.7887C88.4392 24.4712 88.2716 24.0033 88.2716 23.385H89.7425C89.7425 23.7109 89.797 23.9407 89.9059 24.0743C90.0149 24.1997 90.1783 24.2623 90.3962 24.2623C90.6309 24.2623 90.8069 24.1997 90.9243 24.0743C91.0416 23.9407 91.1003 23.7109 91.1003 23.385H92.546C92.546 24.0033 92.3742 24.4712 92.0306 24.7887C91.687 25.1062 91.1464 25.265 90.4088 25.265Z" fill="#24272A"/>
<path d="M94.9894 29.8646V28.3105H99.0123V29.8646H94.9894Z" fill="#24272A"/>
<path d="M58.2213 44.5838C57.5844 44.5838 57.0438 44.496 56.5996 44.3206C56.1637 44.1451 55.8285 43.8861 55.5938 43.5435C55.3675 43.201 55.2376 42.7916 55.2041 42.3153H56.8887C56.9055 42.4908 56.9558 42.6454 57.0396 42.779C57.1318 42.9127 57.2701 43.013 57.4544 43.0798C57.6472 43.1467 57.9028 43.1801 58.2213 43.1801C58.7158 43.1801 59.0594 43.1091 59.2522 42.967C59.4534 42.8166 59.5539 42.637 59.5539 42.4281C59.5539 42.1775 59.4701 41.9895 59.3025 41.8641C59.1432 41.7388 58.8457 41.6761 58.4099 41.6761H57.3916V40.4479H58.3219C58.6404 40.4479 58.8834 40.3811 59.0511 40.2474C59.2187 40.1137 59.3025 39.9382 59.3025 39.721C59.3025 39.5288 59.2187 39.3701 59.0511 39.2448C58.8918 39.1111 58.6152 39.0442 58.2213 39.0442C57.8106 39.0442 57.5131 39.1152 57.3287 39.2573C57.1443 39.391 57.0396 39.5873 57.0144 39.8463H55.3298C55.3633 39.3701 55.4891 38.969 55.707 38.6432C55.9333 38.3173 56.2559 38.0708 56.675 37.9037C57.1024 37.7283 57.6179 37.6405 58.2213 37.6405C59.1935 37.6405 59.8976 37.8202 60.3334 38.1795C60.7692 38.5304 60.9871 38.9983 60.9871 39.5831C60.9871 39.9006 60.9033 40.1847 60.7357 40.4354C60.5764 40.686 60.3208 40.8699 59.9688 40.9868C60.4465 41.1038 60.7776 41.296 60.962 41.5633C61.1464 41.8224 61.2385 42.1315 61.2385 42.4908C61.2385 42.8918 61.1296 43.2511 60.9117 43.5686C60.6938 43.8861 60.3627 44.1368 59.9185 44.3206C59.4743 44.496 58.9086 44.5838 58.2213 44.5838Z" fill="#24272A"/>
<path d="M64.7957 44.5838C64.3179 44.5838 63.9115 44.496 63.5762 44.3206C63.241 44.1368 62.9853 43.8861 62.8093 43.5686C62.6333 43.2511 62.5453 42.8918 62.5453 42.4908C62.5453 41.8224 62.7423 41.321 63.1362 40.9868C63.5385 40.6526 64.1377 40.4855 64.934 40.4855H66.9203V40.1722C66.9203 39.7377 66.8197 39.4327 66.6186 39.2573C66.4258 39.0818 66.1157 38.9941 65.6883 38.9941C65.3111 38.9941 65.0387 39.0609 64.8711 39.1946C64.7035 39.32 64.6071 39.4787 64.582 39.6709H62.9225C62.9476 39.2865 63.0691 38.944 63.2871 38.6432C63.5134 38.334 63.8318 38.0917 64.2425 37.9163C64.6616 37.7324 65.1644 37.6405 65.7511 37.6405C66.321 37.6405 66.8155 37.7241 67.2346 37.8912C67.662 38.0583 67.9931 38.3298 68.2278 38.7058C68.4624 39.0735 68.5798 39.5706 68.5798 40.1973V42.7414C68.5798 43.0924 68.584 43.4015 68.5924 43.6689C68.6091 43.9279 68.6343 44.1827 68.6678 44.4334H67.1215C67.0879 44.2496 67.067 44.1117 67.0586 44.0198C67.0586 43.9195 67.0586 43.7733 67.0586 43.5811C66.8826 43.8485 66.606 44.0825 66.2289 44.283C65.8517 44.4835 65.374 44.5838 64.7957 44.5838ZM65.3111 43.3054C65.5793 43.3054 65.8349 43.2595 66.078 43.1676C66.3294 43.0673 66.5306 42.9169 66.6814 42.7164C66.8407 42.5075 66.9203 42.2443 66.9203 41.9268V41.6135H65.2483C64.9298 41.6135 64.6783 41.6887 64.4939 41.8391C64.3179 41.9811 64.2299 42.1775 64.2299 42.4281C64.2299 42.6955 64.3221 42.9085 64.5065 43.0673C64.6909 43.226 64.9591 43.3054 65.3111 43.3054Z" fill="#24272A"/>
<path d="M70.4177 44.4334V37.7909H76.427V44.4334H74.7801V39.1696H72.0646V44.4334H70.4177Z" fill="#24272A"/>
<path d="M81.3377 44.5838C80.7342 44.5838 80.1769 44.4626 79.6656 44.2203C79.1628 43.9697 78.7605 43.5895 78.4587 43.0798C78.157 42.5702 78.0062 41.9352 78.0062 41.1748V40.9242C78.0062 40.2056 78.157 39.604 78.4587 39.1194C78.7605 38.6265 79.1628 38.2588 79.6656 38.0165C80.1769 37.7659 80.7342 37.6405 81.3377 37.6405C81.9495 37.6405 82.5069 37.7659 83.0097 38.0165C83.5126 38.2588 83.9149 38.6265 84.2166 39.1194C84.5183 39.604 84.6692 40.2056 84.6692 40.9242V41.1748C84.6692 41.9184 84.5183 42.5451 84.2166 43.0548C83.9149 43.5644 83.5126 43.9488 83.0097 44.2078C82.5069 44.4585 81.9495 44.5838 81.3377 44.5838ZM81.3377 43.1801C81.6562 43.1801 81.9369 43.1091 82.18 42.967C82.4314 42.8166 82.6284 42.591 82.7709 42.2903C82.9133 41.9895 82.9846 41.6177 82.9846 41.1748V40.9242C82.9846 40.5148 82.9133 40.1722 82.7709 39.8965C82.6284 39.6207 82.4314 39.4119 82.18 39.2698C81.9369 39.1194 81.6562 39.0442 81.3377 39.0442C81.0192 39.0442 80.7342 39.1194 80.4828 39.2698C80.2397 39.4119 80.047 39.6207 79.9045 39.8965C79.762 40.1722 79.6908 40.5148 79.6908 40.9242V41.1748C79.6908 41.626 79.762 42.002 79.9045 42.3028C80.047 42.5952 80.2397 42.8166 80.4828 42.967C80.7342 43.1091 81.0192 43.1801 81.3377 43.1801Z" fill="#24272A"/>
<path d="M86.2483 44.4334V37.7909H89.5673C90.1456 37.7909 90.6149 37.8661 90.9753 38.0165C91.3357 38.1669 91.5955 38.3758 91.7548 38.6432C91.9224 38.9105 92.0062 39.2239 92.0062 39.5831C92.0062 39.8839 91.914 40.1722 91.7296 40.4479C91.5452 40.7153 91.2854 40.8949 90.9502 40.9868C91.3609 41.0871 91.6794 41.2793 91.9056 41.5633C92.1403 41.8391 92.2577 42.1649 92.2577 42.5409C92.2577 43.1174 92.0565 43.577 91.6542 43.9195C91.2519 44.2621 90.6401 44.4334 89.8187 44.4334H86.2483ZM87.8952 43.1049H89.5044C89.8816 43.1049 90.1582 43.0506 90.3342 42.942C90.5186 42.825 90.6107 42.6412 90.6107 42.3905C90.6107 42.1399 90.5228 41.9602 90.3467 41.8516C90.1791 41.7346 89.8983 41.6761 89.5044 41.6761H87.8952V43.1049ZM87.8952 40.4479H89.341C89.7265 40.4479 89.9905 40.3936 90.133 40.285C90.2839 40.1764 90.3593 40.0093 90.3593 39.7837C90.3593 39.5664 90.2839 39.4035 90.133 39.2949C89.9822 39.1779 89.7181 39.1194 89.341 39.1194H87.8952V40.4479Z" fill="#24272A"/>
<path d="M96.8614 44.5838C96.2579 44.5838 95.7006 44.4626 95.1893 44.2203C94.6865 43.9697 94.2842 43.5937 93.9824 43.0924C93.6807 42.5827 93.5299 41.9435 93.5299 41.1748V40.9242C93.5299 40.1889 93.6723 39.579 93.9573 39.0944C94.2506 38.6098 94.6404 38.2463 95.1265 38.004C95.6126 37.7617 96.149 37.6405 96.7357 37.6405C97.7833 37.6405 98.5795 37.9163 99.1243 38.4677C99.6691 39.0192 99.9415 39.8171 99.9415 40.8615V41.5633H95.227C95.2438 41.956 95.3276 42.2777 95.4785 42.5284C95.6377 42.7707 95.8389 42.9503 96.0819 43.0673C96.325 43.1759 96.5848 43.2302 96.8614 43.2302C97.2888 43.2302 97.6115 43.1676 97.8294 43.0422C98.0473 42.9169 98.2024 42.7331 98.2946 42.4908H99.8158C99.6816 43.1843 99.3506 43.7065 98.8226 44.0574C98.2946 44.4083 97.6408 44.5838 96.8614 44.5838ZM96.7985 38.9941C96.5387 38.9941 96.2873 39.0359 96.0442 39.1194C95.8012 39.203 95.6084 39.3534 95.4659 39.5706C95.3234 39.7795 95.2438 40.0594 95.227 40.4103H98.3323C98.3239 40.0343 98.2485 39.7461 98.106 39.5455C97.9719 39.3367 97.7917 39.1946 97.5654 39.1194C97.3391 39.0359 97.0835 38.9941 96.7985 38.9941Z" fill="#24272A"/>
<path d="M100.888 46V43.0548H101.643C101.76 42.8793 101.852 42.6161 101.919 42.2652C101.995 41.9143 102.049 41.5216 102.083 41.0871C102.124 40.6443 102.145 40.2098 102.145 39.7837V37.7909H107.363V43.0548H108.167V46H106.722V44.4334H102.334V46H100.888ZM103.264 43.0548H105.703V39.1696H103.654V40.0343C103.654 40.6192 103.625 41.1874 103.566 41.7388C103.516 42.2819 103.415 42.7206 103.264 43.0548Z" fill="#24272A"/>
<path d="M109.626 44.4334V37.7909H111.273V40.3602H114.114V37.7909H115.761V44.4334H114.114V41.7388H111.273V44.4334H109.626Z" fill="#24272A"/>
<path d="M117.676 44.4334V37.7909H119.323V42.0521L122.29 37.7909H123.811V44.4334H122.164V40.1722L119.198 44.4334H117.676Z" fill="#24272A"/>
<path d="M125.727 44.4334V37.7909H127.374V40.3978H127.99L130.051 37.7909H131.874L129.36 40.9367L132 44.4334H130.014L127.99 41.7012H127.374V44.4334H125.727Z" fill="#24272A"/>
</svg>
