<svg width="19" height="32" viewBox="0 0 19 32" fill="none" xmlns="http://www.w3.org/2000/svg">
<path d="M9.63758 0C4.96992 0 1.18613 3.71267 1.18613 8.29234C1.18613 12.8721 4.96992 16.585 9.63758 16.585C14.3052 16.585 18.089 12.8721 18.089 8.29234C18.089 3.71267 14.3052 0 9.63758 0ZM9.63758 11.7204C7.70813 11.7204 6.14394 10.1856 6.14394 8.29246C6.14394 6.39934 7.70813 4.86459 9.63758 4.86459C11.567 4.86459 13.1312 6.39934 13.1312 8.29246C13.1312 10.1856 11.567 11.7204 9.63758 11.7204Z" fill="#24272A"/>
<path d="M12.6213 23.1833C16.0048 22.507 18.0323 20.9348 18.1396 20.8505C19.1296 20.0714 19.2887 18.6524 18.4947 17.6808C17.7008 16.7094 16.2546 16.5534 15.2643 17.3323C15.2434 17.3489 13.0809 18.9766 9.5228 18.9789C5.96482 18.9766 3.75659 17.3489 3.73566 17.3323C2.74536 16.5534 1.29921 16.7094 0.505323 17.6808C-0.288686 18.6524 -0.129641 20.0714 0.860421 20.8505C0.969151 20.936 3.08038 22.5491 6.55866 23.2095L1.71103 28.1803C0.830064 29.0767 0.856551 30.5041 1.77017 31.3684C2.2161 31.7903 2.79084 32 3.36509 32C3.96715 32 4.56862 31.7692 5.0195 31.3103L9.52292 26.6033L14.4812 31.3408C15.3796 32.2208 16.8343 32.2194 17.731 31.3383C18.6277 30.4571 18.6266 29.0295 17.7285 28.1497L12.6213 23.1833Z" fill="#24272A"/>
</svg>
