<svg width="69" height="69" viewBox="0 0 69 69" fill="none" xmlns="http://www.w3.org/2000/svg">
<path fill-rule="evenodd" clip-rule="evenodd" d="M15.4401 33.7513C25.3841 29.4188 32.0151 26.5626 35.3329 25.1826C44.8059 21.2424 46.7743 20.558 48.0573 20.5354C48.3395 20.5304 48.9704 20.6004 49.3791 20.932C49.7242 21.212 49.8192 21.5903 49.8646 21.8558C49.91 22.1212 49.9666 22.726 49.9216 23.1986C49.4083 28.5924 47.187 41.6816 46.057 47.7228C45.5788 50.279 44.6373 51.1361 43.7258 51.2199C41.7449 51.4022 40.2407 49.9108 38.3221 48.6532C35.3199 46.6852 33.6238 45.4601 30.7097 43.5397C27.3418 41.3203 29.5251 40.1005 31.4444 38.1071C31.9467 37.5853 40.6746 29.6467 40.8435 28.9265C40.8646 28.8364 40.8842 28.5007 40.6848 28.3234C40.4853 28.1462 40.1909 28.2068 39.9785 28.255C39.6774 28.3233 34.8813 31.4934 25.5902 37.7651C24.2289 38.6999 22.9958 39.1554 21.891 39.1315C20.6731 39.1052 18.3302 38.4429 16.5886 37.8767C14.4524 37.1823 12.7546 36.8152 12.9024 35.6359C12.9794 35.0216 13.8253 34.3934 15.4401 33.7513Z" fill="#24272A"/>
</svg>
