<svg width="23" height="19" viewBox="0 0 23 19" fill="none" xmlns="http://www.w3.org/2000/svg">
<path fill-rule="evenodd" clip-rule="evenodd" d="M11.2227 17.6185C7.98367 17.6185 5.21667 17.1285 5.21667 15.1665C5.21667 13.2045 7.96567 11.4965 11.2227 11.4965C14.4617 11.4965 17.2287 13.1885 17.2287 15.1495C17.2287 17.1105 14.4797 17.6185 11.2227 17.6185Z" stroke="white" stroke-width="2" stroke-linecap="round" stroke-linejoin="round"/>
<path fill-rule="evenodd" clip-rule="evenodd" d="M11.2227 8.699C13.3487 8.699 15.0727 6.976 15.0727 4.85C15.0727 2.724 13.3487 1 11.2227 1C9.0967 1 7.3727 2.724 7.3727 4.85C7.3667 6.968 9.0767 8.692 11.1957 8.699H11.2227Z" stroke="white" stroke-width="2" stroke-linecap="round" stroke-linejoin="round"/>
<path d="M17.6124 7.6419C18.8494 7.3109 19.7614 6.1829 19.7614 4.8399C19.7614 3.4389 18.7684 2.2689 17.4464 1.9989" stroke="white" stroke-width="2" stroke-linecap="round" stroke-linejoin="round"/>
<path d="M18.1934 10.7947C19.9474 10.7947 21.4454 11.9837 21.4454 13.0457C21.4454 13.6707 20.9284 14.3517 20.1444 14.5357" stroke="white" stroke-width="2" stroke-linecap="round" stroke-linejoin="round"/>
<path d="M4.83396 7.6419C3.59596 7.3109 2.68396 6.1829 2.68396 4.8399C2.68396 3.4389 3.67796 2.2689 4.99896 1.9989" stroke="white" stroke-width="2" stroke-linecap="round" stroke-linejoin="round"/>
<path d="M4.252 10.7947C2.498 10.7947 1 11.9837 1 13.0457C1 13.6707 1.517 14.3517 2.302 14.5357" stroke="white" stroke-width="2" stroke-linecap="round" stroke-linejoin="round"/>
</svg>
