<svg width="77" height="77" viewBox="0 0 77 77" fill="none" xmlns="http://www.w3.org/2000/svg">
<rect width="76.75" height="76.75" fill="#F0F1F2"/>
<path d="M37.6376 22C32.9699 22 29.1861 25.7127 29.1861 30.2923C29.1861 34.8721 32.9699 38.585 37.6376 38.585C42.3052 38.585 46.089 34.8721 46.089 30.2923C46.089 25.7127 42.3052 22 37.6376 22ZM37.6376 33.7204C35.7081 33.7204 34.1439 32.1856 34.1439 30.2925C34.1439 28.3993 35.7081 26.8646 37.6376 26.8646C39.567 26.8646 41.1312 28.3993 41.1312 30.2925C41.1312 32.1856 39.567 33.7204 37.6376 33.7204Z" fill="#24272A"/>
<path d="M40.6213 45.1833C44.0048 44.507 46.0323 42.9348 46.1396 42.8505C47.1296 42.0714 47.2887 40.6524 46.4947 39.6808C45.7008 38.7094 44.2546 38.5534 43.2643 39.3323C43.2434 39.3489 41.0809 40.9766 37.5228 40.9789C33.9648 40.9766 31.7566 39.3489 31.7357 39.3323C30.7454 38.5534 29.2992 38.7094 28.5053 39.6808C27.7113 40.6524 27.8704 42.0714 28.8604 42.8505C28.9692 42.936 31.0804 44.5491 34.5587 45.2095L29.711 50.1803C28.8301 51.0767 28.8566 52.5041 29.7702 53.3684C30.2161 53.7903 30.7908 54 31.3651 54C31.9672 54 32.5686 53.7692 33.0195 53.3103L37.5229 48.6033L42.4812 53.3408C43.3796 54.2208 44.8343 54.2194 45.731 53.3383C46.6277 52.4571 46.6266 51.0295 45.7285 50.1497L40.6213 45.1833Z" fill="#24272A"/>
</svg>
