<svg width="77" height="77" viewBox="0 0 77 77" fill="none" xmlns="http://www.w3.org/2000/svg">
<rect width="76.75" height="76.75" fill="#F0F1F2"/>
<path d="M60.4515 27.9792C59.9204 26.0423 58.3652 24.5152 56.3927 23.9938C52.7892 23.0254 38.3749 23.0254 38.3749 23.0254C38.3749 23.0254 23.9606 23.0254 20.357 23.9565C18.4225 24.478 16.8293 26.0423 16.2983 27.9792C15.35 31.5176 15.35 38.8551 15.35 38.8551C15.35 38.8551 15.35 46.2298 16.2983 49.731C16.8293 51.6678 18.3846 53.1949 20.357 53.7164C23.9985 54.6848 38.3749 54.6848 38.3749 54.6848C38.3749 54.6848 52.7892 54.6848 56.3927 53.7536C58.3652 53.2322 59.9204 51.7051 60.4515 49.7683C61.3998 46.2299 61.3998 38.8923 61.3998 38.8923C61.3998 38.8923 61.4377 31.5176 60.4515 27.9792Z" fill="#24272A"/>
<path d="M45.5716 38.8555L34.0591 31.6602V46.0508L45.5716 38.8555Z" fill="white"/>
</svg>
